<svg id="Layer_1" data-name="Layer 1" xmlns="http://www.w3.org/2000/svg" viewBox="0 0 629 189.61"><title>Loom logo - Brandlogos.net</title><path d="M310.44,453.35V314.64H335.9V453.35Z" transform="translate(-69.5 -289.19)" style="fill:#fff"/><path d="M554.69,359.09H579v11.5c5.17-9.19,17.24-14.18,27.57-14.18,12.83,0,23.17,5.56,28,15.71,7.46-11.5,17.43-15.71,29.88-15.71,17.42,0,34.08,10.54,34.08,35.82v61.12H673.8V397.41c0-10.16-5-17.82-16.66-17.82-10.92,0-17.43,8.43-17.43,18.59v55.18H614.44V397.41c0-10.16-5.17-17.82-16.66-17.82-11.11,0-17.62,8.24-17.62,18.59v55.18H554.69Z" transform="translate(-69.5 -289.19)" style="fill:#fff"/><path d="M393.45,456.08c-28.69,0-49.46-21.28-49.46-49.86,0-28.12,20.71-49.91,49.46-49.91s49.46,22,49.46,49.91C442.92,434.6,422.13,456.08,393.45,456.08Zm0-76.7a26.84,26.84,0,1,0,26.83,26.84A26.87,26.87,0,0,0,393.45,379.39Z" transform="translate(-69.5 -289.19)" style="fill:#fff"/><path d="M497.32,456.08c-28.69,0-49.46-21.28-49.46-49.86,0-28.12,20.71-49.91,49.46-49.91s49.46,22,49.46,49.91C546.78,434.6,526,456.08,497.32,456.08Zm0-77a27.15,27.15,0,1,0,27.14,27.15A27.18,27.18,0,0,0,497.32,379.07Z" transform="translate(-69.5 -289.19)" style="fill:#fff"/><path d="M259.11,373.46H203.67l48-27.72-10.54-18.27-48,27.72,27.72-48-18.27-10.55-27.72,48V289.19H153.76v55.45l-27.73-48-18.26,10.55,27.72,48-48-27.72L76.93,345.73l48,27.72H69.5v21.09h55.44l-48,27.72,10.55,18.27,48-27.72-27.72,48L126,471.38l27.72-48v55.45h21.09V423.36l27.72,48,18.27-10.55-27.72-48,48,27.72,10.55-18.27-48-27.72H259.1V373.46Zm-94.81,39.23a28.79,28.79,0,1,1,28.79-28.79A28.79,28.79,0,0,1,164.31,412.69Z" transform="translate(-69.5 -289.19)" style="fill:#625df5"/></svg>